<svg width="62" height="65" viewBox="0 0 62 65" fill="none" xmlns="http://www.w3.org/2000/svg">
<path d="M54.4362 18.9583C53.99 18.1475 53.351 17.4718 52.5816 16.9972C51.8122 16.5225 50.9387 16.2651 50.0461 16.25H16.9919L15.4941 10.1292C15.3428 9.53831 15.0052 9.0186 14.5363 8.65468C14.0674 8.29075 13.4948 8.10406 12.9118 8.125H7.74704C7.06215 8.125 6.40532 8.41034 5.92103 8.91825C5.43674 9.42616 5.16467 10.115 5.16467 10.8333C5.16467 11.5516 5.43674 12.2405 5.92103 12.7484C6.40532 13.2563 7.06215 13.5417 7.74704 13.5417H10.9492L18.0765 41.3292C18.2278 41.92 18.5654 42.4397 19.0343 42.8036C19.5033 43.1676 20.0759 43.3543 20.6589 43.3333H43.9001C44.377 43.3318 44.8442 43.1918 45.2498 42.9289C45.6555 42.666 45.9838 42.2904 46.1984 41.8437L54.6686 24.0771C55.0357 23.27 55.2066 22.3802 55.1661 21.4871C55.1255 20.5939 54.8747 19.7251 54.4362 18.9583Z" fill="black"/>
<path d="M19.3677 56.875C21.507 56.875 23.2412 55.0562 23.2412 52.8125C23.2412 50.5688 21.507 48.75 19.3677 48.75C17.2284 48.75 15.4941 50.5688 15.4941 52.8125C15.4941 55.0562 17.2284 56.875 19.3677 56.875Z" fill="black"/>
<path d="M45.1914 56.875C47.3307 56.875 49.065 55.0562 49.065 52.8125C49.065 50.5688 47.3307 48.75 45.1914 48.75C43.0521 48.75 41.3179 50.5688 41.3179 52.8125C41.3179 55.0562 43.0521 56.875 45.1914 56.875Z" fill="black"/>
</svg>
