<svg width="115" height="115" viewBox="0 0 115 115" fill="none" xmlns="http://www.w3.org/2000/svg">
<path d="M47.1904 20.5338C47.2795 21.0788 47.0088 21.5313 46.1003 21.9873C44.2586 21.2518 42.2665 20.9719 40.2934 21.1715C38.0241 21.3531 36.1182 22.0799 36.3747 23.6225C36.7309 25.165 38.9148 26.0735 42.8157 25.7101C52.3418 24.8943 52.2528 18.4497 66.2249 17.1815C77.1119 16.184 83.1931 19.5398 84.0089 23.6225C84.643 26.7966 82.0139 29.8818 74.1194 30.5194C67.1333 31.1536 63.0507 29.2476 62.6873 27.3453C62.5056 26.3478 63.0436 24.8943 66.4066 24.5309C66.7628 26.0734 68.6759 27.7051 73.2109 27.2526C76.4991 26.9748 79.2031 25.7778 78.8468 23.9965C78.4906 22.0906 75.0349 21.004 69.5843 21.4565C58.5156 22.454 55.7939 28.5351 46.3568 29.3509C39.6593 29.9673 34.2158 27.5198 33.4891 23.8896C33.2183 22.5288 33.2183 19.3546 40.2934 18.7169C43.9236 18.4461 46.8271 19.0731 47.1904 20.5302V20.5338ZM60.4358 37.5019C50.4712 37.5817 40.5247 36.6374 30.7531 34.684C22.6911 32.689 18.4268 30.5123 18.4268 27.7015C18.4268 26.5223 18.9719 25.5248 20.6035 24.3456C15.5234 26.3406 12.8016 27.9758 12.8016 30.5159C13.0724 33.3303 17.611 36.1411 26.8664 38.3178C37.7926 40.7589 48.9714 41.8855 60.1651 41.6736C71.3557 41.9002 82.5328 40.7734 93.4531 38.3178C102.716 36.1411 107.154 33.2376 107.154 30.5159C107.154 28.5209 105.159 26.5971 101.529 25.1721C101.952 25.4328 102.304 25.792 102.557 26.2188C102.811 26.6457 102.957 27.1276 102.983 27.6231C102.983 30.4375 98.8075 32.7033 90.3715 34.6092C80.5267 36.6434 70.4915 37.612 60.4394 37.4984L60.4358 37.5019Z" fill="#6F4E37"/>
<path d="M11.8041 58.4601C8.86233 62.0872 7.3753 66.6791 7.63243 71.3421C7.78271 73.4721 8.3865 75.5454 9.40335 77.4231C10.4202 79.3007 11.8266 80.9393 13.5284 82.2291C15.1877 83.5632 17.1249 84.5085 19.1975 84.9955C21.2702 85.4825 23.4257 85.4989 25.5055 85.0435C27.3243 84.5923 29.1098 84.0162 30.8492 83.3192C27.2544 83.3145 23.7793 82.0273 21.0488 79.6891C19.3804 78.5277 17.9707 77.0332 16.9087 75.2998C15.8468 73.5664 15.1555 71.6318 14.8786 69.6179C14.4766 67.779 14.4635 65.8764 14.8402 64.0322C15.2169 62.188 15.975 60.4429 17.0659 58.909C18.2525 57.4011 19.733 56.1498 21.4177 55.2313C23.1024 54.3127 24.9561 53.7459 26.8664 53.5653C30.9559 53.2791 35.0124 54.4699 38.2984 56.9211C37.3628 55.804 36.3305 54.7716 35.2133 53.836C33.469 52.5337 31.4556 51.6377 29.3205 51.2137C27.1853 50.7896 24.9824 50.8481 22.8728 51.385C18.4423 52.313 14.5049 54.831 11.8041 58.4637V58.4601ZM93.8271 45.3038C82.8865 47.6549 71.7181 48.7805 60.5284 48.6597C49.2495 48.7483 37.9937 47.6232 26.9554 45.3038C19.1536 43.3088 14.9783 41.1286 13.5284 38.8628C15.0007 48.4082 18.1357 57.6215 22.7909 66.0839C26.1467 71.164 29.5062 75.61 32.8621 80.4194C34.2467 83.0892 35.2835 85.9255 35.9472 88.8589C38.2116 91.9424 41.4918 94.1275 45.2097 95.0292C49.974 96.7441 55.0343 97.4843 60.0902 97.2059H60.6353C65.8321 97.4312 71.0257 96.6932 75.9541 95.0292C79.5328 93.9905 82.6819 91.827 84.9351 88.8589H85.2059C85.7722 85.9351 86.7184 83.0979 88.0202 80.4194C91.3761 75.61 94.7356 71.1569 98.0914 66.0839C102.653 57.58 105.78 48.3815 107.347 38.8593C105.533 41.3993 101.358 43.5903 93.8271 45.3038V45.3038Z" fill="#339933"/>
</svg>
